<svg xmlns="http://www.w3.org/2000/svg" version="1.1" xmlns:xlink="http://www.w3.org/1999/xlink" xmlns:svgjs="http://svgjs.com/svgjs" width="2537" height="880" preserveAspectRatio="none" viewBox="0 0 2537 880"><g mask="url(&quot;#SvgjsMask1000&quot;)" fill="none"><rect width="2537" height="880" x="0" y="0" fill="rgba(0, 4, 8, 1)"></rect><path d="M1310.94 949.48C1551.37 927.11 1712.11 424.25 2121.17 423.7 2530.23 423.15 2715.52 718.17 2931.4 722.9" stroke="rgba(51,121,194,0.58)" stroke-width="2"></path><path d="M127.6 893.64C465.83 877.8 733.15 296.64 1343.22 296.45 1953.29 296.26 2239.92 679.01 2558.84 683.65" stroke="rgba(51,121,194,0.58)" stroke-width="2"></path><path d="M377.26 968.75C693.73 953.59 908.7 418.71 1512.77 405.98 2116.84 393.25 2356.84 143.71 2648.28 141.98" stroke="rgba(51,121,194,0.58)" stroke-width="2"></path><path d="M911.46 1024.12C1124.99 999.67 1248.81 529.95 1612.44 526.4 1976.06 522.85 1962.92 636.4 2313.41 636.4 2663.9 636.4 2837 526.73 3014.39 526.4" stroke="rgba(51,121,194,0.58)" stroke-width="2"></path><path d="M1507.75 940.23C1685.49 877.17 1621.56 349.59 1976.48 349.13 2331.39 348.67 2659.64 737.12 2913.93 745.13" stroke="rgba(51,121,194,0.58)" stroke-width="2"></path></g><defs><mask id="SvgjsMask1000"><rect width="2537" height="880" fill="#ffffff"></rect></mask></defs></svg>